<svg width="70" height="70" viewBox="0 0 70 70" fill="none" xmlns="http://www.w3.org/2000/svg">
<path d="M12.5692 41.9076C12.1159 43.9818 11.4533 45.0584 12.9935 44.4298C12.9935 44.4298 14.9186 43.6894 17.2287 42.5787C18.3838 39.9871 19.2878 37.2255 20.8927 34.1455C22.5866 30.895 24.3887 27.7386 26.6277 24.8682C31.5999 18.494 37.6601 13.4616 44.8691 10.0189C49.448 7.8323 54.3231 6.55896 59.3421 5.81156C63.162 5.24274 66.2294 5.19809 70 5.53322C69.2787 5.47315 69.1036 5.47433 70 5.53322C70 4.92743 69.8969 0.155474 69.8969 0.155474C69.8969 0.155474 67.4917 -0.070057 64.2415 0.0221445C57.4311 0.215331 50.9098 1.78504 44.6275 4.46942C38.7329 6.98812 33.6294 10.6916 28.8167 14.9777C23.5193 19.6954 19.6188 25.437 16.381 31.6911C14.7373 34.8662 13.5495 38.2876 12.5692 41.9076Z" fill="#F67280"/>
<path d="M70 10.9842C70 10.9842 37.4386 6.7628 25.7285 36.7055C27.7153 36.4672 29.6466 36.2421 31.5758 35.9994C32.007 35.9451 32.1387 35.5714 32.3483 35.2218C35.1725 30.5096 38.7746 26.4961 43.182 23.3457C47.8003 20.0447 52.7765 18.0552 58.3562 17.0409C61.3454 16.4975 64.4902 15.9814 67.5223 16.1214C69.9312 16.1214 70 16.1214 70 16.1214C70 14.5631 70 12.6054 70 10.9842Z" fill="#F3C969"/>
<path d="M41.7824 31.4673C40.0814 33.0114 38.8857 34.8305 37.5903 36.6009C38.9538 37.7323 40.8391 37.9709 42.0429 39.4491C47.6947 31.0634 55.6365 26.868 65.3497 26.8437C70 26.8437 70 26.8437 70 26.8437C70 25.1471 70 23.7094 70 23.7094C70 23.2199 70 22.4246 70 21.8539C69.3243 21.4657 60.1429 21.2825 55.0507 23.0096C50.0318 24.7118 45.5175 27.3559 41.7824 31.4673Z" fill="#88C070"/>
<path d="M69.8626 33.2839C69.8626 33.2839 69.8626 32.7945 69.8626 31.0124C69.8626 31.0124 69.098 30.167 61.7737 31.0124C55.0054 31.7936 49.6028 35.2332 45.7873 41.1612C45.4518 41.6825 45.4032 42.0847 45.6672 42.4387C46.7906 43.9453 47.3901 45.7274 48.2951 47.5899C49.614 45.1311 50.774 42.7458 52.7469 40.9282C55.7713 38.1419 59.2252 36.6285 63.33 36.398C68.0801 36.1313 69.8626 36.398 69.8626 36.398C69.6738 36.3007 70.0375 36.5359 69.8626 36.398C69.8626 35.364 69.8626 35.8534 69.8626 34.9051C69.8626 34.171 69.8626 34.171 69.8626 33.2839Z" fill="#B176DE"/>
<path d="M34.7336 39.7719C38.0547 40.6904 40.7436 42.3817 42.9122 44.926C44.7334 47.0628 45.7455 49.5038 46.2826 52.1718C46.3989 52.7493 46.4217 53.3444 46.5005 54.0465C47.9939 52.7981 49.4722 51.8184 51.2949 51.3442C54.92 50.4012 59.2326 51.6465 61.5796 54.7632C63.8625 57.7949 64.2013 61.0856 62.7548 64.4416C61.5051 67.3408 59.1292 69.1775 55.8873 69.8156C55.2512 69.9408 54.589 69.9915 53.9388 69.9919C39.7673 70.0016 25.5958 70.0016 11.4243 69.9971C9.0964 69.9963 7.05615 69.1847 5.17627 67.8973C2.07995 65.777 0.435938 62.8965 0.0678971 59.243C-0.147807 57.1017 0.138615 55.0528 1.09729 53.1631C2.18352 51.0219 3.75495 49.2365 5.95223 48.0184C8.14048 46.8054 10.4748 46.1754 12.9817 46.3046C13.9985 46.357 15.0111 46.6366 16.0048 46.8897C16.4853 47.0121 16.7187 46.985 17.0119 46.5365C19.5912 42.5919 23.2585 40.1989 28.0271 39.429C30.2607 39.0684 32.4738 39.1628 34.7336 39.7719Z" fill="white"/>
</svg>
