<?xml version="1.0" encoding="utf-8"?>
<!-- Generator: Adobe Illustrator 27.2.0, SVG Export Plug-In . SVG Version: 6.00 Build 0)  -->
<svg version="1.1" id="Layer_1" xmlns="http://www.w3.org/2000/svg" xmlns:xlink="http://www.w3.org/1999/xlink" x="0px" y="0px"
	 viewBox="0 0 250 100" style="enable-background:new 0 0 250 100;" xml:space="preserve">
<style type="text/css">
	.st0{fill:#3D7A8E;}
	.st1{fill:#9B196F;}
	.st2{fill:#FFB4AB;}
	.st3{fill:#4387B8;}
	.st4{fill:#F95656;}
</style>
<g>
	<g>
		<g>
			<path class="st0" d="M24.1,38.7c1.3-11.2,18.2-13.2,26.1-7c3.9,3.2-0.2,8.1-3.7,5.6c-4.3-2.7-13.9-4-15.1,2
				c-1.6,9.4,23.5,4,23.1,19.3C54,73.3,32.9,73.6,24.9,67c-1.9-1.6-1.8-4.1-0.8-5.6c1.5-1.5,3.2-2,5.1-0.4
				c4.7,3.2,16.8,5.6,17.7-2.5C46.2,49.9,22.3,55.1,24.1,38.7z"/>
		</g>
		<g>
			<g>
				<path class="st0" d="M24.2,69.3c-0.1,0-0.1,0-0.2,0c-0.3-0.1-5.1-1.4-8.4-2.3c-0.2-0.1-0.3-0.2-0.4-0.5c0-0.2,0.1-0.4,0.3-0.5
					l3.6-1.8L14.4,57c-0.1-0.2-0.1-0.4,0-0.6c0.1-0.2,0.3-0.2,0.6-0.2l4.5,1.4l-0.5-3c0-0.2,0.1-0.4,0.2-0.6c0.2-0.1,0.4-0.1,0.6,0
					l3.2,2.1l0.6-1.8c0.1-0.2,0.2-0.3,0.4-0.3s0.4,0.1,0.5,0.2l1.7,2.4l1.4-0.6c0.2-0.1,0.5,0,0.6,0.2l1.7,2.4
					c0.2,0.2,0.1,0.6-0.2,0.7c-0.2,0.2-0.6,0.1-0.7-0.2l-1.3-2l-1.3,0.5c-0.2,0.1-0.5,0-0.6-0.2l-1.3-1.9L24,57
					c-0.1,0.2-0.2,0.2-0.3,0.3c-0.2,0.1-0.3,0-0.5-0.1l-2.8-1.8l0.6,2.8c0,0.2,0,0.4-0.2,0.5c-0.2,0.2-0.3,0.2-0.5,0.1l-4-1.2
					l4.3,6.5c0.1,0.2,0.1,0.2,0.1,0.4s-0.2,0.2-0.2,0.3l-3,1.4c2.3,0.6,6.8,1.9,7.1,2c0.2,0.1,0.4,0.4,0.3,0.6
					C24.6,69.2,24.5,69.3,24.2,69.3z"/>
			</g>
			<g>
				<path class="st0" d="M49,45.4c-0.2,0-0.3-0.1-0.4-0.2L43,38.9c-0.2-0.2-0.2-0.6,0.1-0.7s0.6-0.2,0.7,0.1l4.7,5.3v-4
					c0-0.2,0.1-0.3,0.2-0.4c0.2-0.1,0.3-0.2,0.5-0.1l2.9,0.7v-3.1c0-0.2,0.2-0.5,0.4-0.5l2.9-0.6l-1.4-2c-0.1-0.2-0.1-0.4,0-0.6
					l2.1-3.2l-3.3,0.9c-0.2,0.1-0.3,0-0.5-0.1s-0.2-0.2-0.2-0.4L52,27.3l-3,1.4c-0.2,0.2-0.6,0-0.7-0.2c-0.2-0.2,0-0.6,0.2-0.7
					l3.7-1.7c0.2-0.1,0.3-0.1,0.5,0s0.2,0.2,0.2,0.4l0.1,3.2l4-1.1c0.2-0.1,0.4,0,0.6,0.2c0.2,0.2,0.2,0.4,0,0.6l-2.7,4l1.6,2.3
					c0.1,0.2,0.1,0.3,0.1,0.5c-0.1,0.2-0.2,0.2-0.4,0.3L52.8,37v3.2c0,0.2-0.1,0.3-0.2,0.4c-0.2,0.1-0.3,0.2-0.5,0.1l-2.8-0.5V45
					C49.3,45.2,49.1,45.4,49,45.4C49.1,45.4,49,45.4,49,45.4z"/>
			</g>
		</g>
	</g>
	<g>
		<g>
			<path class="st1" d="M85.7,69.5C75,70,64,62.9,64,48.8c0-14.2,11.1-21.1,21.7-21.1c10,0.6,20.6,7.5,20.6,21.1
				C106.3,62.4,95.8,69.5,85.7,69.5z M85.1,35.1c-6.4,0-13.4,4.5-13.4,13.6c0,9,7,13.6,13.4,13.6c6.6,0,13.7-4.6,13.7-13.6
				C98.8,39.6,91.7,35.1,85.1,35.1z"/>
		</g>
		<g>
			<path class="st1" d="M85.4,59.8c-0.2,0-0.4,0-0.6,0c-1.1-0.1-2.3-0.3-3.5-0.6c-1.5-0.3-2.8-0.7-4-1.5c-1.1-0.9-1.9-2.1-2.5-3.2
				c-0.8-1.5-1.3-2.8-1.5-4c-0.9-4.1,0.9-8.6,4.3-11c3.5-2.4,8.3-2.4,11.8,0c3.4,2.4,5.1,7,4,11.1c-1.1,4-5.1,7.1-9.3,7.2
				c-1.3,0-2.6-0.2-3.6-0.8c-1.2-0.6-2.4-1.7-3.2-3.1c-1.4-2.2-2.1-4.7-1.7-7c0.3-2.6,1.7-4.9,3.8-6.2c1.9-1.1,4.3-1.4,6.6-0.7
				c2.1,0.7,4,2.1,5.1,4.1c0.7,1,1,2.1,1,3.1c0.1,1.3-0.4,2.9-1.4,4.5c-1.2,1.7-2.6,2.9-4.2,3.4c-2.6,0.9-5.8-0.3-7.3-2.8
				c-1.4-2.3-1.4-5.4-0.1-7.8c0.6-1,1.3-1.7,2.1-2.3c1.3-0.8,3.1-0.9,4.7-0.4c2.7,0.9,4.6,3.5,4.5,6.1c-0.1,2.8-2.5,5.2-5.2,5.2
				c-1.3,0-2.8-0.7-3.7-1.8c-0.9-1-1.3-2.5-1-3.7c0.2-0.9,0.7-1.7,1.4-2.8c0.5-0.6,1-1.1,1.9-1.4c1.1-0.4,2.5,0.1,3.7,1.3
				c0.7,0.6,1,1.2,1.3,1.9c0.6,1.5,0,3.3-1.3,4.2s-3.2,0.8-4.4-0.3c-0.9-0.9-1.3-2.1-1-3.2c0.3-1.2,1.5-2.1,2.8-2
				c0.6,0.1,1.2,0.5,1.6,1c0.4,0.6,0.5,1.1,0.4,1.7c-0.2,0.6-0.6,1-1.1,1.3c-0.5,0.2-1,0.2-1.5-0.1c-0.6-0.3-0.9-0.9-0.7-1.6
				c0.1-0.6,0.5-1,1-1.2c0.2-0.1,0.6,0.1,0.6,0.4c0.1,0.2-0.1,0.6-0.4,0.6c-0.2,0.1-0.3,0.3-0.3,0.4c0,0.2,0,0.6,0.2,0.6
				c0.2,0.2,0.6,0.1,0.6,0c0.3-0.2,0.6-0.4,0.6-0.6c0.1-0.3,0-0.6-0.2-0.9c-0.2-0.3-0.6-0.6-0.9-0.6c-0.7-0.1-1.5,0.6-1.7,1.2
				c-0.2,0.8,0.1,1.6,0.8,2.2c0.9,0.8,2.3,0.9,3.2,0.2c1-0.6,1.3-2,1-3.1c-0.2-0.6-0.6-1-1-1.5c-0.5-0.5-1.7-1.3-2.8-1
				c-0.6,0.2-1,0.7-1.4,1.1c-0.7,0.9-1,1.6-1.2,2.3c-0.2,1,0.1,2.1,0.9,2.9c0.8,0.9,1.9,1.5,3,1.5l0,0c2.1,0,4.2-2.1,4.3-4.3
				c0.1-2.2-1.5-4.4-3.8-5.1c-1.3-0.5-2.8-0.3-3.9,0.3c-0.7,0.4-1.3,1-1.8,1.9c-1.2,2.1-1.2,4.9,0,6.9c1.3,2.1,4,3.1,6.2,2.4
				c1.3-0.5,2.6-1.4,3.6-3.1c0.9-1.3,1.3-2.8,1.3-3.9c-0.1-0.9-0.4-1.7-0.9-2.6c-1-1.7-2.8-3.1-4.7-3.7c-2-0.6-4.1-0.4-5.8,0.6
				c-1.8,1-3.1,3.2-3.3,5.5c-0.2,2.1,0.3,4.4,1.6,6.4c0.9,1.3,1.8,2.2,2.9,2.8c0.9,0.5,2.1,0.7,3.2,0.7c3.7-0.1,7.3-2.8,8.4-6.5
				c1-3.6-0.5-7.8-3.6-10c-3.1-2.1-7.5-2.1-10.7,0c-3.1,2.2-4.8,6.3-4,10c0.2,1.1,0.7,2.4,1.4,3.8c0.6,1,1.2,2.2,2.2,3
				s2.2,1,3.6,1.3c1.1,0.2,2.2,0.5,3.3,0.6c4.3,0.2,8.7-2.5,10.3-6.6c1.6-4,0.5-9-2.8-11.9c-0.2-0.2-0.2-0.5-0.1-0.7
				c0.2-0.2,0.5-0.2,0.7-0.1c3.6,3.1,4.9,8.5,3.1,13C94.3,56.9,89.9,59.8,85.4,59.8z"/>
		</g>
	</g>
	<g>
		<g>
			<path class="st2" d="M156.9,48.3c0-11.1,7-20.6,20.2-20.6c5,0,9,1.5,13.2,5.1c1.6,1.4,1.7,4,0.2,5.6c-1.6,1.3-3.9,1.2-5.3-0.2
				c-2.4-2.5-4.7-3.2-8.1-3.2c-8.9,0-13.1,6.2-13.1,13.3S168.2,62,177.1,62c3.2,0,6.3-1.3,9-3.7c1.8-1.3,4.3-0.7,5.3,0.7
				c0.9,1.3,1.3,3.4-0.6,5.4c-4,3.7-8.9,4.5-13.6,4.5C163.3,69,156.9,59.5,156.9,48.3z"/>
		</g>
		<g>
			<g>
				<path class="st2" d="M189.7,68.5c-0.2,0-0.4,0-0.6-0.1c-1.3-0.4-2.2-1.9-2.5-2.6s-0.6-1.4-0.9-2.1c-0.5-1.3-0.9-2.4-1.7-3.4
					c-0.5-0.6-1.1-0.9-1.6-0.7s-0.7,0.7-0.7,1.5c0,0.3-0.2,0.6-0.5,0.6c-0.2,0-0.6-0.2-0.6-0.5c0-1.3,0.5-2.2,1.4-2.5s2,0.1,2.8,1
					c0.9,1.1,1.3,2.4,1.8,3.6c0.2,0.7,0.5,1.3,0.8,2c0.4,0.9,1.1,1.8,1.9,2.1c0.3,0.1,0.6,0,1-0.2c1.2-0.8,1-3.2,0.9-4.1
					c0-0.3,0.2-0.6,0.5-0.6s0.6,0.2,0.6,0.5c0.2,1.4,0.3,4-1.3,5.1C190.5,68.4,190.1,68.5,189.7,68.5z"/>
			</g>
			<g>
				<path class="st2" d="M179.3,72.3c-0.3,0-0.7-0.1-1.1-0.2c-1.7-0.7-2.6-2.5-2.8-5.2c0-0.4,0-0.7,0-1.1c0-1.3-0.1-2.5-0.6-3.6
					c-0.3-0.6-0.7-1.1-0.9-1.1s-0.5,0.3-0.6,0.5c-0.2,0.2-0.5,0.3-0.7,0.2c-0.2-0.2-0.3-0.5-0.2-0.7c0.6-0.9,1.2-0.9,1.6-0.9
					c1,0.1,1.7,1.3,1.8,1.7c0.6,1.3,0.6,2.6,0.6,4c0,0.3,0,0.7,0,1c0.1,1.6,0.5,3.6,2.1,4.3c0.5,0.2,0.9,0.2,1.3,0
					c0.8-0.4,1.3-1.6,1.5-2.4c0.1-0.3,0.3-0.5,0.6-0.4s0.5,0.3,0.4,0.6c-0.2,1.1-0.9,2.5-2.1,3.1C180,72.2,179.6,72.3,179.3,72.3z"
					/>
			</g>
			<g>
				<path class="st2" d="M167,69.7c-0.8,0-1.6-0.3-2.1-0.7c-1.6-1.1-2.6-3.6-1.3-6c0.6-0.9,1.3-1.7,2.1-2.5c0.6-0.6,1.3-1.3,1.7-2.1
					c0.6-0.9,0.6-2,0.1-2.7c-0.4-0.6-1.1-0.8-2-0.6c-0.3,0.1-0.6-0.2-0.6-0.4c-0.1-0.3,0.2-0.6,0.4-0.6c1.3-0.2,2.4,0.2,3,1
					c0.7,1,0.7,2.6-0.1,3.9c-0.6,0.9-1.3,1.6-1.9,2.2c-0.7,0.7-1.4,1.4-1.9,2.3c-1,1.8-0.3,3.8,0.9,4.7c1.3,0.9,2.7,0.6,3.8-0.7
					c0.2-0.2,0.6-0.2,0.7-0.1c0.2,0.2,0.2,0.6,0.1,0.7C169.1,69.3,168,69.7,167,69.7z"/>
			</g>
			<g>
				<path class="st2" d="M158,58.9c-1.3,0-2.3-0.6-2.8-1.7c-1.1-2.2-0.2-6.1,1.5-7.6c0.2-0.2,0.6-0.2,0.7,0c0.2,0.2,0.2,0.6,0,0.7
					c-1.3,1.3-2.1,4.7-1.3,6.4c0.5,0.9,1.3,1.3,2.5,1.1c0.3-0.1,0.6,0.2,0.6,0.4s-0.2,0.6-0.4,0.6C158.5,58.8,158.3,58.9,158,58.9z"
					/>
			</g>
			<g>
				<path class="st2" d="M164.2,48.8c-0.2,0-0.5-0.2-0.5-0.5s0.2-0.6,0.5-0.6c1.3-0.2,2.3-0.6,2.5-1.1s-0.2-1-0.6-1.5
					c-1.2-1.3-2.8-2.2-4.4-3.1c-1.4-0.7-2.9-1.5-4.2-2.7c-0.9-0.9-1.5-2.1-1.4-3c0.1-0.7,0.4-1.3,1-1.8c1.3-1,3.5-1,4.9-0.7
					c0.3,0.1,0.5,0.3,0.4,0.6s-0.3,0.5-0.6,0.4c-1.3-0.2-3-0.2-4,0.6c-0.4,0.3-0.6,0.6-0.6,1c-0.1,0.6,0.4,1.5,1.1,2.2
					c1.1,1.1,2.5,1.8,4,2.5c1.7,0.9,3.4,1.7,4.7,3.3c0.8,0.9,1,1.7,0.8,2.5C167.1,48.3,165.3,48.7,164.2,48.8
					C164.3,48.8,164.2,48.8,164.2,48.8z"/>
			</g>
			<g>
				<path class="st2" d="M170.7,39.6c-1.2,0-2.5-0.7-3.2-1.4c-0.2-0.2-0.2-0.6,0-0.7c0.2-0.2,0.6-0.2,0.7,0c0.8,0.7,2.3,1.3,3,1
					c0.3-0.2,0.6-0.6,0.5-1.3c-0.1-1.1-0.9-2.3-1.7-3.4c-0.5-0.7-1-1.4-1.3-2.1c-0.8-1.7-1.6-5,0.4-6.5c0.6-0.5,1.3-0.6,2.1-0.5
					c1.7,0.4,3.1,2.5,3.5,3c0.2,0.2,0.1,0.6-0.2,0.7c-0.2,0.2-0.6,0.1-0.7-0.2c-0.6-1-1.7-2.4-2.8-2.5c-0.5-0.1-0.9,0-1.3,0.3
					c-1.3,1-0.8,3.7-0.1,5.2c0.3,0.6,0.7,1.3,1.2,1.9c0.9,1.3,1.8,2.5,1.9,4s-0.6,2.1-1.1,2.3C171.3,39.6,171,39.6,170.7,39.6z"/>
			</g>
			<g>
				<path class="st2" d="M184.2,28.6c0.2-0.2,0.5-0.3,0.7-0.6c0.7-0.6,0.9-0.8,1.4-0.3c2.1,3.2,0.6,7.3-1,10.7
					c0.3,0.2,0.6,0.5,0.8,0.7l0,0c1.7-3.6,3.6-8.1,1.1-12l-0.1-0.1c-1.3-1.3-2.3-0.2-2.9,0.2c-0.2,0.2-0.4,0.4-0.6,0.5
					c-0.1,0-0.2,0.1-0.2,0.2c-0.9,1.2-1.3,2.5-1.9,3.9c-0.7,1.8-1.3,3.5-2.8,4.7c-0.5,0.2-1.1,0-1.5-0.3c-0.2-0.2-0.6-0.6-0.6-1.1
					c0-0.3-0.2-0.6-0.5-0.6s-0.6,0.2-0.6,0.5c0,0.8,0.3,1.5,0.9,2c0.7,0.6,1.7,0.7,2.5,0.4c0.1,0,0.1,0,0.2-0.1
					c1.8-1.3,2.6-3.2,3.3-5.1C182.9,30.9,183.4,29.7,184.2,28.6z"/>
			</g>
		</g>
	</g>
	<g>
		<g>
			<path class="st3" d="M200.1,33c0-2.1,0.5-4.1,3.5-4.1c2.1,0,2.5,0.6,4.1,2l19.1,23.8V32.3c0-1.9,1.7-4,3.6-4c2.1,0,4.1,2.1,4.1,4
				v32.4c0,2.5-1.6,3.5-3.1,4c-2,0-3-0.5-4.7-2l-19.1-24.2v22.2c0,2.5-1.6,4-3.6,4c-2.1,0-3.9-1.4-3.9-4L200.1,33L200.1,33z"/>
		</g>
		<g>
			<g>
				<path class="st3" d="M209.2,67.4L209.2,67.4c-0.2,0-0.4-0.2-0.4-0.5l1.2-16c0-0.2,0.2-0.3,0.2-0.4c0.2-0.1,0.3,0,0.5,0.1
					l14,15.1c0.2,0.2,0.2,0.4,0,0.5c-0.2,0.2-0.4,0.2-0.5,0.1l-11.6-8.7l-0.4,8.7l6.7-0.7l-4.6-3.2l-0.1,2.5c0,0.2-0.2,0.4-0.4,0.4
					s-0.4-0.2-0.4-0.4l0.2-3.2c0-0.2,0.1-0.3,0.2-0.3c0.2-0.1,0.3-0.1,0.4,0l6.1,4.3c0.2,0.1,0.2,0.2,0.2,0.5
					c-0.1,0.2-0.2,0.3-0.4,0.3l-8.2,0.8c-0.1,0-0.2,0-0.3-0.1s-0.2-0.2-0.2-0.3l0.4-10c0-0.2,0.1-0.3,0.2-0.3c0.2,0,0.3-0.1,0.4,0.1
					l8.7,6.5L210.7,52l-1.1,15C209.6,67.2,209.4,67.4,209.2,67.4z"/>
			</g>
			<g>
				<path class="st3" d="M224.7,48.3c-0.1,0-0.2-0.1-0.3-0.2l-14.6-16c-0.2-0.2-0.2-0.4,0-0.6s0.4-0.2,0.6,0l13.8,15.3v-14h-7.8
					l5.2,7.8l-0.1-5.8h-2.4c-0.2,0-0.4-0.2-0.4-0.4s0.2-0.4,0.4-0.4h2.8c0.2,0,0.4,0.2,0.4,0.4l0.2,7.6c0,0.2-0.1,0.3-0.3,0.4
					c-0.2,0.1-0.4,0-0.5-0.2l-6.5-9.6c-0.1-0.2-0.1-0.3,0-0.4c0.1-0.2,0.2-0.2,0.4-0.2h8.9c0.2,0,0.4,0.2,0.4,0.4v15.5
					C225,48.1,224.9,48.2,224.7,48.3C224.8,48.3,224.8,48.3,224.7,48.3z"/>
			</g>
		</g>
	</g>
	<g>
		<g>
			<g>
				<path class="st4" d="M117,37.6c1.3-11.2,18.2-13.2,26.1-7c3.9,3.2-0.2,8.1-3.7,5.6c-4.3-2.7-13.9-4-15.1,2
					c-1.6,9.4,23.5,4,23.1,19.3c-0.4,14.6-21.6,14.9-29.5,8.4c-1.9-1.6-1.8-4.1-0.8-5.6c1.5-1.5,3.2-2,5.1-0.4
					c4.7,3.2,16.8,5.6,17.7-2.5C139.1,48.9,115.2,54,117,37.6z"/>
			</g>
		</g>
		<g>
			<path class="st4" d="M115.7,68.3c-0.1,0-0.2,0-0.2-0.1l-6.2-4c-0.2-0.1-0.2-0.2-0.2-0.5c0-0.2,0.1-0.3,0.2-0.5l2.8-1.6v-4.8
				c0-0.3,0.2-0.6,0.6-0.6h3.3l1.6-3.6c0.1-0.2,0.2-0.3,0.4-0.3c0.2,0,0.4,0.1,0.5,0.2l3.2,4c0.2,0.2,0.2,0.6-0.1,0.7
				c-0.2,0.2-0.6,0.2-0.7-0.1l-2.6-3.3l-1.4,3.2c-0.1,0.2-0.2,0.3-0.5,0.3h-3.2v4.6c0,0.2-0.1,0.4-0.2,0.5l-2.4,1.3l5.5,3.5
				c0.2,0.2,0.3,0.5,0.2,0.7C116.1,68.2,116,68.3,115.7,68.3z"/>
		</g>
		<g>
			<path class="st4" d="M143.3,40.6c-0.1,0-0.2,0-0.2-0.1l-4-1.7c-0.2-0.1-0.4-0.4-0.2-0.7c0.1-0.2,0.4-0.4,0.7-0.2l3.5,1.5l0.8-2.1
				c0.1-0.2,0.2-0.3,0.4-0.3l3.6-0.6l-1.7-1.1c-0.2-0.1-0.2-0.2-0.2-0.5c0-0.2,0.1-0.3,0.2-0.4l3.5-2l-6.2-3.6
				c-0.2-0.2-0.3-0.5-0.2-0.7c0.2-0.2,0.5-0.3,0.7-0.2l7,4c0.2,0.1,0.2,0.2,0.2,0.5c0,0.2-0.1,0.3-0.2,0.5l-3.6,2.1l2.2,1.4
				c0.2,0.1,0.2,0.3,0.2,0.6c-0.1,0.2-0.2,0.4-0.4,0.4l-4.7,0.7l-0.9,2.3c-0.1,0.2-0.2,0.2-0.3,0.3
				C143.4,40.6,143.4,40.6,143.3,40.6z"/>
		</g>
	</g>
</g>
</svg>
