<svg width="70" height="70" viewBox="0 0 70 70" fill="none" xmlns="http://www.w3.org/2000/svg">
<path d="M10.9375 18.9584C10.9375 18.3782 11.168 17.8218 11.5782 17.4116C11.9884 17.0013 12.5448 16.7709 13.125 16.7709H56.875C57.4552 16.7709 58.0116 17.0013 58.4218 17.4116C58.832 17.8218 59.0625 18.3782 59.0625 18.9584C59.0625 19.5385 58.832 20.0949 58.4218 20.5052C58.0116 20.9154 57.4552 21.1459 56.875 21.1459H13.125C12.5448 21.1459 11.9884 20.9154 11.5782 20.5052C11.168 20.0949 10.9375 19.5385 10.9375 18.9584ZM10.9375 35C10.9375 34.4199 11.168 33.8635 11.5782 33.4532C11.9884 33.043 12.5448 32.8125 13.125 32.8125H56.875C57.4552 32.8125 58.0116 33.043 58.4218 33.4532C58.832 33.8635 59.0625 34.4199 59.0625 35C59.0625 35.5802 58.832 36.1366 58.4218 36.5468C58.0116 36.9571 57.4552 37.1875 56.875 37.1875H13.125C12.5448 37.1875 11.9884 36.9571 11.5782 36.5468C11.168 36.1366 10.9375 35.5802 10.9375 35ZM10.9375 51.0417C10.9375 50.4615 11.168 49.9051 11.5782 49.4949C11.9884 49.0847 12.5448 48.8542 13.125 48.8542H56.875C57.4552 48.8542 58.0116 49.0847 58.4218 49.4949C58.832 49.9051 59.0625 50.4615 59.0625 51.0417C59.0625 51.6219 58.832 52.1783 58.4218 52.5885C58.0116 52.9987 57.4552 53.2292 56.875 53.2292H13.125C12.5448 53.2292 11.9884 52.9987 11.5782 52.5885C11.168 52.1783 10.9375 51.6219 10.9375 51.0417Z" fill="white"/>
</svg>
