<svg width="55" height="55" viewBox="0 0 55 55" fill="none" xmlns="http://www.w3.org/2000/svg">
<path d="M39.9283 37.7029C39.7546 38.4815 39.324 39.179 38.7058 39.6832C38.0304 40.3682 37.2257 40.9122 36.3383 41.2835C35.4509 41.6548 34.4985 41.846 33.5365 41.8461H33.0871C31.0681 41.7365 29.0912 41.2254 27.272 40.3429H27.2582C26.8364 40.1465 26.4008 39.9501 25.979 39.7109C23.8554 38.5202 21.9076 37.0402 20.1915 35.3132C17.9645 33.2214 16.1369 30.7415 14.7982 27.9949C14.0868 26.4897 13.6119 24.8837 13.3904 23.2336C13.0647 21.5064 13.2606 19.7213 13.9533 18.1058C14.3905 17.377 14.9246 16.7108 15.5408 16.1255C15.8181 15.8119 16.1571 15.5589 16.5367 15.3824C16.9162 15.2058 17.3281 15.1095 17.7466 15.0994C18.2017 15.1497 18.6423 15.2899 19.0428 15.5118C19.4433 15.7338 19.7957 16.0331 20.0795 16.3924C20.7115 17.0797 21.4832 17.796 22.1165 18.4571L22.9878 19.3145C23.4994 19.768 23.8161 20.4014 23.8728 21.0846C23.8728 21.711 23.6419 22.3153 23.2256 22.7842C22.9561 23.112 22.6699 23.4259 22.3682 23.7245L22.0875 24.0191C21.9243 24.1712 21.7999 24.3593 21.7224 24.5681C21.6533 24.7737 21.6256 24.9844 21.6394 25.2001C21.8621 25.7961 22.212 26.3382 22.6628 26.7877C23.3667 27.7419 24.0692 28.5716 24.7855 29.4705C26.0813 30.9747 27.619 32.2521 29.3353 33.25C29.5109 33.3786 29.7128 33.4643 29.9272 33.5016C30.1125 33.5155 30.3006 33.4878 30.4748 33.4187C30.9657 33.1296 31.4013 32.759 31.7664 32.322C32.2574 31.7208 32.9622 31.3332 33.7329 31.2406C34.4746 31.2508 35.182 31.5541 35.7008 32.0842C35.9815 32.322 36.2899 32.6456 36.5858 32.9554L37.0062 33.3896L37.4419 33.8114L38.1872 34.5692C38.6316 34.9638 39.0483 35.3856 39.4374 35.8346C39.8274 36.3739 40.003 37.0419 39.9283 37.7029ZM34.8863 28.0793C34.6077 28.0764 34.3413 27.9645 34.1443 27.7675C33.9473 27.5705 33.8354 27.3041 33.8325 27.0255C33.8339 26.23 33.6783 25.4421 33.3746 24.7069C33.0709 23.9717 32.625 23.3037 32.0625 22.7412C31.5 22.1787 30.832 21.7328 30.0968 21.4291C29.3616 21.1253 28.5736 20.9697 27.7781 20.9712C27.4987 20.9712 27.2306 20.8601 27.033 20.6625C26.8354 20.4649 26.7244 20.1969 26.7244 19.9174C26.7244 19.6379 26.8354 19.3699 27.033 19.1723C27.2306 18.9746 27.4987 18.8636 27.7781 18.8636C28.8504 18.862 29.9125 19.072 30.9035 19.4816C31.8945 19.8912 32.7949 20.4923 33.5531 21.2505C34.3114 22.0088 34.9125 22.9092 35.3221 23.9002C35.7317 24.8911 35.9417 25.9532 35.94 27.0255C35.9404 27.164 35.9134 27.3012 35.8606 27.4292C35.8077 27.5572 35.7301 27.6735 35.6322 27.7715C35.5343 27.8694 35.418 27.947 35.29 27.9998C35.1619 28.0526 35.0247 28.0796 34.8863 28.0793Z" fill="white"/>
<path d="M39.761 27.5869C39.4827 27.5841 39.2165 27.4723 39.0195 27.2756C38.8226 27.0789 38.7105 26.8129 38.7072 26.5345C38.7094 25.1792 38.4443 23.8367 37.9271 22.5838C37.4099 21.331 36.6507 20.1925 35.693 19.2334C34.7353 18.2743 33.5979 17.5134 32.3459 16.9944C31.0938 16.4753 29.7517 16.2082 28.3963 16.2084C28.2548 16.2135 28.1137 16.1901 27.9815 16.1395C27.8492 16.0889 27.7286 16.0121 27.6266 15.9138C27.5247 15.8155 27.4437 15.6977 27.3883 15.5674C27.3329 15.4371 27.3044 15.2969 27.3044 15.1553C27.3044 15.0137 27.3329 14.8736 27.3883 14.7433C27.4437 14.613 27.5247 14.4951 27.6266 14.3968C27.7286 14.2985 27.8492 14.2218 27.9815 14.1712C28.1137 14.1206 28.2548 14.0971 28.3963 14.1023C30.0283 14.1023 31.6443 14.4239 33.1519 15.0489C34.6594 15.6738 36.0291 16.5898 37.1824 17.7444C38.3357 18.8991 39.2502 20.2697 39.8735 21.778C40.4967 23.2862 40.8166 24.9026 40.8148 26.5345C40.8152 26.673 40.7881 26.8102 40.7353 26.9382C40.6825 27.0663 40.6049 27.1826 40.507 27.2805C40.409 27.3784 40.2927 27.456 40.1647 27.5088C40.0367 27.5617 39.8995 27.5873 39.761 27.5869Z" fill="white"/>
<circle cx="27.5" cy="27.5" r="26" stroke="white" stroke-width="3"/>
</svg>
